{"accessors":[{"name":"Cylinder-Mesh_positions","componentType":5126,"count":19,"min":[-0.800000011920929,-0.27060532569885254,-0.800000011920929],"max":[0.800000011920929,0.7293946743011475,0.800000011920929],"type":"VEC3","bufferView":0,"byteOffset":0},{"name":"Cylinder-Mesh_normals","componentType":5126,"count":19,"min":[-0.7808688282966614,-1,-0.7808688282966614],"max":[0.7808688282966614,0.6246950626373291,0.7808688282966614],"type":"VEC3","bufferView":0,"byteOffset":744},{"name":"Cylinder-Mesh_texcoords","componentType":5126,"count":19,"min":[0,0],"max":[1,1],"type":"VEC2","bufferView":1,"byteOffset":0},{"name":"Cylinder-Mesh_0_indices","componentType":5123,"count":36,"min":[0],"max":[18],"type":"SCALAR","bufferView":2,"byteOffset":0},{"name":"Box-Mesh_positions","componentType":5126,"count":24,"min":[-0.5,-0.5247409343719482,-0.5],"max":[0.5,0.47525906562805176,0.5],"type":"VEC3","bufferView":0,"byteOffset":228},{"name":"Box-Mesh_normals","componentType":5126,"count":24,"min":[-1,-1,-1],"max":[1,1,1],"type":"VEC3","bufferView":0,"byteOffset":972},{"name":"Box-Mesh_texcoords","componentType":5126,"count":24,"min":[0,0],"max":[1,1],"type":"VEC2","bufferView":1,"byteOffset":152},{"name":"Box-Mesh_0_indices","componentType":5123,"count":36,"min":[0],"max":[23],"type":"SCALAR","bufferView":2,"byteOffset":72},{"name":"Cylinder_1-Mesh_positions","componentType":5126,"count":19,"min":[-0.800000011920929,-0.7956631779670715,-0.800000011920929],"max":[0.800000011920929,0.20433679223060608,0.800000011920929],"type":"VEC3","bufferView":0,"byteOffset":516},{"name":"Cylinder_1-Mesh_normals","componentType":5126,"count":19,"min":[-0.7808688282966614,-0.6246950626373291,-0.7808688282966614],"max":[0.7808688282966614,1,0.7808688282966614],"type":"VEC3","bufferView":0,"byteOffset":1260},{"name":"Cylinder_1-Mesh_texcoords","componentType":5126,"count":19,"min":[0,0],"max":[1,1],"type":"VEC2","bufferView":1,"byteOffset":344},{"name":"Cylinder_1-Mesh_0_indices","componentType":5123,"count":36,"min":[0],"max":[18],"type":"SCALAR","bufferView":2,"byteOffset":144}],"asset":{"generator":"obj2gltf","version":"2.0"},"buffers":[{"name":"input","byteLength":2200,"uri":"data:application/octet-stream;base64,"}],"bufferViews":[{"name":"bufferView_0","buffer":0,"byteLength":1488,"byteOffset":0,"byteStride":12,"target":34962},{"name":"bufferView_1","buffer":0,"byteLength":496,"byteOffset":1488,"byteStride":8,"target":34962},{"name":"bufferView_2","buffer":0,"byteLength":216,"byteOffset":1984,"target":34963}],"materials":[{"name":"default","pbrMetallicRoughness":{"baseColorFactor":[0.5,0.5,0.5,1],"metallicFactor":0,"roughnessFactor":1},"emissiveFactor":[0,0,0],"alphaMode":"OPAQUE","doubleSided":false}],"meshes":[{"name":"Cylinder-Mesh","primitives":[{"attributes":{"POSITION":0,"NORMAL":1,"TEXCOORD_0":2},"indices":3,"material":0,"mode":4}]},{"name":"Box-Mesh","primitives":[{"attributes":{"POSITION":4,"NORMAL":5,"TEXCOORD_0":6},"indices":7,"material":0,"mode":4}]},{"name":"Cylinder_1-Mesh","primitives":[{"attributes":{"POSITION":8,"NORMAL":9,"TEXCOORD_0":10},"indices":11,"material":0,"mode":4}]}],"nodes":[{"name":"Cylinder","mesh":0},{"name":"Box","mesh":1},{"name":"Cylinder_1","mesh":2}],"scene":0,"scenes":[{"nodes":[0,1,2]}]}
