{"accessors":[{"name":"Icosahedron-Mesh_positions","componentType":5126,"count":60,"min":[-0.8033626079559326,-0.7173765897750854,-0.2994645833969116],"max":[0.4556005895137787,0.5415865778923035,0.9594985842704773],"type":"VEC3","bufferView":0,"byteOffset":0},{"name":"Icosahedron-Mesh_normals","componentType":5126,"count":60,"min":[-1.2623950242996216,-1.2623950242996216,-1.2623950242996216],"max":[1.2623950242996216,1.2623950242996216,1.2623950242996216],"type":"VEC3","bufferView":0,"byteOffset":1728},{"name":"Icosahedron-Mesh_texcoords","componentType":5126,"count":60,"min":[0,0.17620819807052612],"max":[1.0881041288375854,0.8237918019294739],"type":"VEC2","bufferView":1,"byteOffset":0},{"name":"Icosahedron-Mesh_0_indices","componentType":5123,"count":60,"min":[0],"max":[59],"type":"SCALAR","bufferView":2,"byteOffset":0},{"name":"Tetrahedron-Mesh_positions","componentType":5126,"count":12,"min":[-0.46955329179763794,-0.7921532988548279,-0.6822553277015686],"max":[0.8929933309555054,0.5703933238983154,0.6802912950515747],"type":"VEC3","bufferView":0,"byteOffset":720},{"name":"Tetrahedron-Mesh_normals","componentType":5126,"count":12,"min":[-0.4892798662185669,-0.4892798662185669,-0.4892798662185669],"max":[0.4892798662185669,0.4892798662185669,0.4892798662185669],"type":"VEC3","bufferView":0,"byteOffset":2448},{"name":"Tetrahedron-Mesh_texcoords","componentType":5126,"count":12,"min":[0.125,0.30408674478530884],"max":[0.875,0.6959133148193359],"type":"VEC2","bufferView":1,"byteOffset":480},{"name":"Tetrahedron-Mesh_0_indices","componentType":5123,"count":12,"min":[0],"max":[11],"type":"SCALAR","bufferView":2,"byteOffset":120},{"name":"Tetrahedron_1-Mesh_positions","componentType":5126,"count":12,"min":[-1.0169039964675903,-0.5914022326469421,-0.6960240006446838],"max":[0.23037000000476837,0.5632982850074768,0.5512499809265137],"type":"VEC3","bufferView":0,"byteOffset":864},{"name":"Tetrahedron_1-Mesh_normals","componentType":5126,"count":12,"min":[-0.6236368417739868,-0.5773502588272095,-0.6236368417739868],"max":[0.6236368417739868,0.5773502588272095,0.6236368417739868],"type":"VEC3","bufferView":0,"byteOffset":2592},{"name":"Tetrahedron_1-Mesh_texcoords","componentType":5126,"count":12,"min":[0.125,0.30408674478530884],"max":[0.875,0.6959133148193359],"type":"VEC2","bufferView":1,"byteOffset":576},{"name":"Tetrahedron_1-Mesh_0_indices","componentType":5123,"count":12,"min":[0],"max":[11],"type":"SCALAR","bufferView":2,"byteOffset":144},{"name":"Icosahedron_1-Mesh_positions","componentType":5126,"count":60,"min":[-0.4169405698776245,-0.7173765897750854,-0.8053765892982483],"max":[0.8420225977897644,0.5415865778923035,0.4535865783691406],"type":"VEC3","bufferView":0,"byteOffset":1008},{"name":"Icosahedron_1-Mesh_normals","componentType":5126,"count":60,"min":[-1.2623950242996216,-1.2623950242996216,-1.2623950242996216],"max":[1.2623950242996216,1.2623950242996216,1.2623950242996216],"type":"VEC3","bufferView":0,"byteOffset":2736},{"name":"Icosahedron_1-Mesh_texcoords","componentType":5126,"count":60,"min":[0,0.17620819807052612],"max":[1.0881041288375854,0.8237918019294739],"type":"VEC2","bufferView":1,"byteOffset":672},{"name":"Icosahedron_1-Mesh_0_indices","componentType":5123,"count":60,"min":[0],"max":[59],"type":"SCALAR","bufferView":2,"byteOffset":168}],"asset":{"generator":"obj2gltf","version":"2.0"},"buffers":[{"name":"input","byteLength":4896,"uri":"data:application/octet-stream;base64,"}],"bufferViews":[{"name":"bufferView_0","buffer":0,"byteLength":3456,"byteOffset":0,"byteStride":12,"target":34962},{"name":"bufferView_1","buffer":0,"byteLength":1152,"byteOffset":3456,"byteStride":8,"target":34962},{"name":"bufferView_2","buffer":0,"byteLength":288,"byteOffset":4608,"target":34963}],"materials":[{"name":"default","pbrMetallicRoughness":{"baseColorFactor":[0.5,0.5,0.5,1],"metallicFactor":0,"roughnessFactor":1},"emissiveFactor":[0,0,0],"alphaMode":"OPAQUE","doubleSided":false}],"meshes":[{"name":"Icosahedron-Mesh","primitives":[{"attributes":{"POSITION":0,"NORMAL":1,"TEXCOORD_0":2},"indices":3,"material":0,"mode":4}]},{"name":"Tetrahedron-Mesh","primitives":[{"attributes":{"POSITION":4,"NORMAL":5,"TEXCOORD_0":6},"indices":7,"material":0,"mode":4}]},{"name":"Tetrahedron_1-Mesh","primitives":[{"attributes":{"POSITION":8,"NORMAL":9,"TEXCOORD_0":10},"indices":11,"material":0,"mode":4}]},{"name":"Icosahedron_1-Mesh","primitives":[{"attributes":{"POSITION":12,"NORMAL":13,"TEXCOORD_0":14},"indices":15,"material":0,"mode":4}]}],"nodes":[{"name":"Icosahedron","mesh":0},{"name":"Tetrahedron","mesh":1},{"name":"Tetrahedron_1","mesh":2},{"name":"Icosahedron_1","mesh":3}],"scene":0,"scenes":[{"nodes":[0,1,2,3]}]}
