{"accessors":[{"name":"Torus-Mesh_positions","componentType":5126,"count":81,"min":[-1.0570306777954102,-0.30000001192092896,-6.661338412448735e-17],"max":[1.2999999523162842,0.30000001192092896,1.2999876737594604],"type":"VEC3","bufferView":0,"byteOffset":0},{"name":"Torus-Mesh_normals","componentType":5126,"count":81,"min":[-1,-1,-0.9999904632568359],"max":[1,1,0.9999904632568359],"type":"VEC3","bufferView":0,"byteOffset":3816},{"name":"Torus-Mesh_texcoords","componentType":5126,"count":81,"min":[0,0],"max":[1,1],"type":"VEC2","bufferView":1,"byteOffset":0},{"name":"Torus-Mesh_0_indices","componentType":5123,"count":384,"min":[0],"max":[80],"type":"SCALAR","bufferView":2,"byteOffset":0},{"name":"Icosahedron-Mesh_positions","componentType":5126,"count":60,"min":[-0.6396304368972778,-0.4763644337654114,-0.659387469291687],"max":[0.3130984306335449,0.4763644337654114,0.29334142804145813],"type":"VEC3","bufferView":0,"byteOffset":972},{"name":"Icosahedron-Mesh_normals","componentType":5126,"count":60,"min":[-1.668164849281311,-1.668164849281311,-1.668164849281311],"max":[1.668164849281311,1.668164849281311,1.668164849281311],"type":"VEC3","bufferView":0,"byteOffset":4788},{"name":"Icosahedron-Mesh_texcoords","componentType":5126,"count":60,"min":[0,0.17620819807052612],"max":[1.0881041288375854,0.8237918019294739],"type":"VEC2","bufferView":1,"byteOffset":648},{"name":"Icosahedron-Mesh_0_indices","componentType":5123,"count":60,"min":[0],"max":[59],"type":"SCALAR","bufferView":2,"byteOffset":768},{"name":"Box-Mesh_positions","componentType":5126,"count":24,"min":[-1.4905445575714111,-0.36000001430511475,-0.08838249742984772],"max":[-0.4724094867706299,0.36000001430511475,0.92975252866745],"type":"VEC3","bufferView":0,"byteOffset":1692},{"name":"Box-Mesh_normals","componentType":5126,"count":24,"min":[-0.9957089424133301,-1.3888888359069824,-0.9957089424133301],"max":[0.9957089424133301,1.3888888359069824,0.9957089424133301],"type":"VEC3","bufferView":0,"byteOffset":5508},{"name":"Box-Mesh_texcoords","componentType":5126,"count":24,"min":[0,0],"max":[1,1],"type":"VEC2","bufferView":1,"byteOffset":1128},{"name":"Box-Mesh_0_indices","componentType":5123,"count":36,"min":[0],"max":[23],"type":"SCALAR","bufferView":2,"byteOffset":888},{"name":"Octahedron-Mesh_positions","componentType":5126,"count":24,"min":[0.4043479859828949,-0.5600000023841858,-0.7274140119552612],"max":[1.5243480205535889,0.5600000023841858,0.39258599281311035],"type":"VEC3","bufferView":0,"byteOffset":1980},{"name":"Octahedron-Mesh_normals","componentType":5126,"count":24,"min":[-1.0309826135635376,-1.0309826135635376,-1.0309826135635376],"max":[1.0309826135635376,1.0309826135635376,1.0309826135635376],"type":"VEC3","bufferView":0,"byteOffset":5796},{"name":"Octahedron-Mesh_texcoords","componentType":5126,"count":24,"min":[0,0],"max":[1,1],"type":"VEC2","bufferView":1,"byteOffset":1320},{"name":"Octahedron-Mesh_0_indices","componentType":5123,"count":24,"min":[0],"max":[23],"type":"SCALAR","bufferView":2,"byteOffset":960},{"name":"Torus_1-Mesh_positions","componentType":5126,"count":81,"min":[-0.5313540101051331,-1.0570306777954102,-1.6036306619644165],"max":[0.06864601373672485,1.2999999523162842,-0.30364298820495605],"type":"VEC3","bufferView":0,"byteOffset":2268},{"name":"Torus_1-Mesh_normals","componentType":5126,"count":81,"min":[-1,-1,-0.9999904632568359],"max":[1,1,0.9999904632568359],"type":"VEC3","bufferView":0,"byteOffset":6084},{"name":"Torus_1-Mesh_texcoords","componentType":5126,"count":81,"min":[0,0],"max":[1,1],"type":"VEC2","bufferView":1,"byteOffset":1512},{"name":"Torus_1-Mesh_0_indices","componentType":5123,"count":384,"min":[0],"max":[80],"type":"SCALAR","bufferView":2,"byteOffset":1008},{"name":"Octahedron_1-Mesh_positions","componentType":5126,"count":24,"min":[-0.6665130257606506,0.5797280073165894,-0.7562959790229797],"max":[0.293487012386322,1.407565951347351,0.20370399951934814],"type":"VEC3","bufferView":0,"byteOffset":3240},{"name":"Octahedron_1-Mesh_normals","componentType":5126,"count":24,"min":[-1.2028130292892456,-1.3948386907577515,-1.2028130292892456],"max":[1.2028130292892456,1.3948386907577515,1.2028130292892456],"type":"VEC3","bufferView":0,"byteOffset":7056},{"name":"Octahedron_1-Mesh_texcoords","componentType":5126,"count":24,"min":[0,0],"max":[1,1],"type":"VEC2","bufferView":1,"byteOffset":2160},{"name":"Octahedron_1-Mesh_0_indices","componentType":5123,"count":24,"min":[0],"max":[23],"type":"SCALAR","bufferView":2,"byteOffset":1776},{"name":"Box_1-Mesh_positions","componentType":5126,"count":24,"min":[-0.7015029191970825,-1.2030119895935059,-1.2535675764083862],"max":[0.09754292666912079,-0.48301199078559875,-0.45427843928337097],"type":"VEC3","bufferView":0,"byteOffset":3528},{"name":"Box_1-Mesh_normals","componentType":5126,"count":24,"min":[-1.2825082540512085,-1.3888888359069824,-1.2548460960388184],"max":[1.2825082540512085,1.3888888359069824,1.2548460960388184],"type":"VEC3","bufferView":0,"byteOffset":7344},{"name":"Box_1-Mesh_texcoords","componentType":5126,"count":24,"min":[0,0],"max":[1,1],"type":"VEC2","bufferView":1,"byteOffset":2352},{"name":"Box_1-Mesh_0_indices","componentType":5123,"count":36,"min":[0],"max":[23],"type":"SCALAR","bufferView":2,"byteOffset":1824}],"asset":{"generator":"obj2gltf","version":"2.0"},"buffers":[{"name":"input","byteLength":12072,"uri":"data:application/octet-stream;base64,"}],"bufferViews":[{"name":"bufferView_0","buffer":0,"byteLength":7632,"byteOffset":0,"byteStride":12,"target":34962},{"name":"bufferView_1","buffer":0,"byteLength":2544,"byteOffset":7632,"byteStride":8,"target":34962},{"name":"bufferView_2","buffer":0,"byteLength":1896,"byteOffset":10176,"target":34963}],"materials":[{"name":"default","pbrMetallicRoughness":{"baseColorFactor":[0.5,0.5,0.5,1],"metallicFactor":0,"roughnessFactor":1},"emissiveFactor":[0,0,0],"alphaMode":"OPAQUE","doubleSided":false}],"meshes":[{"name":"Torus-Mesh","primitives":[{"attributes":{"POSITION":0,"NORMAL":1,"TEXCOORD_0":2},"indices":3,"material":0,"mode":4}]},{"name":"Icosahedron-Mesh","primitives":[{"attributes":{"POSITION":4,"NORMAL":5,"TEXCOORD_0":6},"indices":7,"material":0,"mode":4}]},{"name":"Box-Mesh","primitives":[{"attributes":{"POSITION":8,"NORMAL":9,"TEXCOORD_0":10},"indices":11,"material":0,"mode":4}]},{"name":"Octahedron-Mesh","primitives":[{"attributes":{"POSITION":12,"NORMAL":13,"TEXCOORD_0":14},"indices":15,"material":0,"mode":4}]},{"name":"Torus_1-Mesh","primitives":[{"attributes":{"POSITION":16,"NORMAL":17,"TEXCOORD_0":18},"indices":19,"material":0,"mode":4}]},{"name":"Octahedron_1-Mesh","primitives":[{"attributes":{"POSITION":20,"NORMAL":21,"TEXCOORD_0":22},"indices":23,"material":0,"mode":4}]},{"name":"Box_1-Mesh","primitives":[{"attributes":{"POSITION":24,"NORMAL":25,"TEXCOORD_0":26},"indices":27,"material":0,"mode":4}]}],"nodes":[{"name":"Torus","mesh":0},{"name":"Icosahedron","mesh":1},{"name":"Box","mesh":2},{"name":"Octahedron","mesh":3},{"name":"Torus_1","mesh":4},{"name":"Octahedron_1","mesh":5},{"name":"Box_1","mesh":6}],"scene":0,"scenes":[{"nodes":[0,1,2,3,4,5,6]}]}
