{"accessors":[{"name":"Octahedron-Mesh_positions","componentType":5126,"count":24,"min":[-0.7071067690849304,-1,-0.7071067690849304],"max":[0.7071067690849304,1,0.7071067690849304],"type":"VEC3","bufferView":0,"byteOffset":0},{"name":"Octahedron-Mesh_normals","componentType":5126,"count":24,"min":[-0.8164965510368347,-0.5773502588272095,-0.8164965510368347],"max":[0.8164965510368347,0.5773502588272095,0.8164965510368347],"type":"VEC3","bufferView":0,"byteOffset":864},{"name":"Octahedron-Mesh_texcoords","componentType":5126,"count":24,"min":[0,0],"max":[1,1],"type":"VEC2","bufferView":1,"byteOffset":0},{"name":"Octahedron-Mesh_0_indices","componentType":5123,"count":24,"min":[0],"max":[23],"type":"SCALAR","bufferView":2,"byteOffset":0},{"name":"Octahedron_1-Mesh_positions","componentType":5126,"count":24,"min":[-0.7071067690849304,-0.7071067690849304,-1],"max":[0.7071067690849304,0.7071067690849304,1],"type":"VEC3","bufferView":0,"byteOffset":288},{"name":"Octahedron_1-Mesh_normals","componentType":5126,"count":24,"min":[-0.8164965510368347,-0.8164965510368347,-0.5773502588272095],"max":[0.8164965510368347,0.8164965510368347,0.5773502588272095],"type":"VEC3","bufferView":0,"byteOffset":1152},{"name":"Octahedron_1-Mesh_texcoords","componentType":5126,"count":24,"min":[0,0],"max":[1,1],"type":"VEC2","bufferView":1,"byteOffset":192},{"name":"Octahedron_1-Mesh_0_indices","componentType":5123,"count":24,"min":[0],"max":[23],"type":"SCALAR","bufferView":2,"byteOffset":48},{"name":"Octahedron_2-Mesh_positions","componentType":5126,"count":24,"min":[-1,-1,-1],"max":[1,1,1],"type":"VEC3","bufferView":0,"byteOffset":576},{"name":"Octahedron_2-Mesh_normals","componentType":5126,"count":24,"min":[-0.5773502588272095,-0.5773502588272095,-0.5773502588272095],"max":[0.5773502588272095,0.5773502588272095,0.5773502588272095],"type":"VEC3","bufferView":0,"byteOffset":1440},{"name":"Octahedron_2-Mesh_texcoords","componentType":5126,"count":24,"min":[0,0],"max":[1,1],"type":"VEC2","bufferView":1,"byteOffset":384},{"name":"Octahedron_2-Mesh_0_indices","componentType":5123,"count":24,"min":[0],"max":[23],"type":"SCALAR","bufferView":2,"byteOffset":96}],"asset":{"generator":"obj2gltf","version":"2.0"},"buffers":[{"name":"job2","byteLength":2448,"uri":"data:application/octet-stream;base64,"}],"bufferViews":[{"name":"bufferView_0","buffer":0,"byteLength":1728,"byteOffset":0,"byteStride":12,"target":34962},{"name":"bufferView_1","buffer":0,"byteLength":576,"byteOffset":1728,"byteStride":8,"target":34962},{"name":"bufferView_2","buffer":0,"byteLength":144,"byteOffset":2304,"target":34963}],"materials":[{"name":"default","pbrMetallicRoughness":{"baseColorFactor":[0.5,0.5,0.5,1],"metallicFactor":0,"roughnessFactor":1},"emissiveFactor":[0,0,0],"alphaMode":"OPAQUE","doubleSided":false}],"meshes":[{"name":"Octahedron-Mesh","primitives":[{"attributes":{"POSITION":0,"NORMAL":1,"TEXCOORD_0":2},"indices":3,"material":0,"mode":4}]},{"name":"Octahedron_1-Mesh","primitives":[{"attributes":{"POSITION":4,"NORMAL":5,"TEXCOORD_0":6},"indices":7,"material":0,"mode":4}]},{"name":"Octahedron_2-Mesh","primitives":[{"attributes":{"POSITION":8,"NORMAL":9,"TEXCOORD_0":10},"indices":11,"material":0,"mode":4}]}],"nodes":[{"name":"Octahedron","mesh":0},{"name":"Octahedron_1","mesh":1},{"name":"Octahedron_2","mesh":2}],"scene":0,"scenes":[{"nodes":[0,1,2]}]}
